<svg xmlns="http://www.w3.org/2000/svg" xmlns:xlink="http://www.w3.org/1999/xlink" width="500" zoomAndPan="magnify" viewBox="0 0 375 374.999991" height="500" preserveAspectRatio="xMidYMid meet" version="1.0"><defs><g/><clipPath id="a470ce57f6"><path d="M 3.316406 6.464844 L 371.566406 6.464844 L 371.566406 367.964844 L 3.316406 367.964844 Z M 3.316406 6.464844 " clip-rule="nonzero"/></clipPath><clipPath id="8b53796b0a"><path d="M 219.777344 47.988281 C 224.375 47.988281 228.085938 51.695312 228.085938 56.285156 C 228.085938 60.875 224.375 64.582031 219.777344 64.582031 C 215.183594 64.582031 211.46875 60.875 211.46875 56.285156 C 211.46875 51.695312 215.183594 47.988281 219.777344 47.988281 Z M 355.589844 182.890625 C 355.589844 187.035156 352.53125 190.445312 348.539062 191.0625 C 346.378906 221.757812 335.953125 250.214844 319.425781 274.203125 C 322.574219 277.222656 324.550781 281.441406 324.550781 286.15625 C 324.550781 295.316406 317.113281 302.75 307.9375 302.75 C 304.246094 302.75 300.851562 301.496094 298.09375 299.464844 C 273.914062 322.996094 242.71875 339.34375 207.953125 344.992188 C 207.953125 345.148438 208.007812 345.308594 208.007812 345.46875 C 208.007812 357.878906 197.933594 367.921875 185.523438 367.921875 C 173.382812 367.921875 163.554688 358.28125 163.113281 346.28125 C 112.917969 341 69.242188 313.605469 42.058594 274.027344 C 40.398438 274.929688 38.542969 275.476562 36.527344 275.476562 C 30.042969 275.476562 24.773438 270.214844 24.773438 263.738281 C 24.773438 259.589844 26.949219 255.953125 30.199219 253.867188 C 18.960938 231.363281 12.613281 206.011719 12.613281 179.199219 C 12.613281 170.355469 13.390625 161.617188 14.769531 153.019531 C 8.140625 150.832031 3.316406 144.652344 3.316406 137.308594 C 3.316406 128.148438 10.757812 120.71875 19.929688 120.71875 C 21.027344 120.71875 22.105469 120.839844 23.148438 121.035156 C 38.242188 80.523438 68.695312 46.347656 108.976562 27.300781 C 109.0625 27.265625 109.152344 27.230469 109.257812 27.175781 C 108.921875 25.871094 108.691406 24.511719 108.691406 23.097656 C 108.691406 13.9375 116.132812 6.507812 125.308594 6.507812 C 131.988281 6.507812 137.730469 10.476562 140.347656 16.160156 C 140.4375 16.144531 140.523438 16.109375 140.59375 16.089844 L 141.195312 18.542969 C 141.621094 19.992188 141.902344 21.492188 141.902344 23.082031 C 141.902344 26.222656 140.984375 29.136719 139.464844 31.625 L 163.695312 49.984375 C 165.144531 48.730469 167.019531 47.953125 169.085938 47.953125 C 173.683594 47.953125 177.394531 51.660156 177.394531 56.25 C 177.394531 58.898438 176.140625 61.226562 174.195312 62.746094 L 193.761719 102.710938 C 194.875 102.359375 196.039062 102.109375 197.277344 102.109375 C 200.796875 102.109375 203.90625 103.683594 206.0625 106.117188 L 234.5 87.847656 C 234.164062 86.929688 233.953125 85.960938 233.953125 84.933594 C 233.953125 80.347656 237.664062 76.640625 242.261719 76.640625 C 246.855469 76.640625 250.566406 80.347656 250.566406 84.933594 C 250.566406 86.683594 250.019531 88.289062 249.101562 89.632812 L 285.210938 127.707031 C 287.117188 126.382812 289.414062 125.589844 291.925781 125.589844 C 298.410156 125.589844 303.679688 130.847656 303.679688 137.328125 C 303.679688 143.207031 299.332031 148.042969 293.675781 148.890625 L 293.675781 216.941406 C 295.847656 217.257812 297.792969 218.175781 299.402344 219.515625 L 339.117188 184.140625 C 339.0625 183.734375 338.992188 183.328125 338.992188 182.90625 C 338.992188 178.316406 342.703125 174.609375 347.300781 174.609375 C 351.878906 174.59375 355.589844 178.300781 355.589844 182.890625 Z M 283.195312 145.09375 L 242.1875 171.945312 C 242.207031 172.136719 242.242188 172.332031 242.242188 172.542969 C 242.242188 173.109375 242.1875 173.65625 242.082031 174.1875 L 285.136719 218.917969 C 286.605469 217.875 288.320312 217.1875 290.175781 216.921875 L 290.175781 148.855469 C 287.402344 148.449219 284.980469 147.089844 283.195312 145.09375 Z M 280.171875 228.46875 C 280.171875 225.765625 281.109375 223.332031 282.644531 221.335938 L 240.527344 177.558594 C 239.855469 178.421875 239.042969 179.144531 238.089844 179.695312 L 224.335938 233.726562 C 226.050781 234.453125 227.519531 235.582031 228.703125 236.976562 L 280.207031 228.609375 C 280.191406 228.554688 280.171875 228.519531 280.171875 228.46875 Z M 134.285156 122.957031 C 131.316406 127.460938 126.226562 130.425781 120.429688 130.425781 C 116.804688 130.425781 113.5 129.242188 110.761719 127.285156 L 80.324219 161.421875 C 82.976562 164.335938 84.636719 168.167969 84.671875 172.402344 L 114.949219 175.316406 C 116.789062 164.777344 125.960938 156.726562 137.042969 156.726562 C 142.292969 156.726562 147.046875 158.597656 150.882812 161.601562 L 169.652344 141.230469 Z M 172.089844 138.597656 L 188.15625 121.160156 C 186.886719 119.570312 186.019531 117.679688 185.699219 115.582031 L 136.867188 115.582031 C 136.707031 117.082031 136.40625 118.527344 135.875 119.871094 Z M 185.542969 201.652344 C 185.542969 201.054688 185.613281 200.453125 185.738281 199.886719 L 157.96875 187.285156 C 154.71875 195.6875 146.605469 201.652344 137.042969 201.652344 C 134.585938 201.652344 132.253906 201.160156 130.042969 200.433594 L 115.53125 235.070312 C 117.210938 236.269531 118.554688 237.894531 119.402344 239.800781 L 185.578125 202.023438 C 185.558594 201.882812 185.542969 201.777344 185.542969 201.652344 Z M 77.515625 186.191406 L 103.636719 234.011719 C 105.175781 233.269531 106.871094 232.828125 108.691406 232.828125 C 110 232.828125 111.238281 233.09375 112.421875 233.480469 L 126.828125 199.09375 C 119.582031 195.367188 114.5625 187.902344 114.5625 179.199219 C 114.5625 179.058594 114.597656 178.917969 114.597656 178.777344 L 84.355469 175.863281 C 83.488281 180.136719 80.980469 183.789062 77.515625 186.191406 Z M 97.910156 249.207031 L 48.15625 262.429688 C 48.210938 262.855469 48.28125 263.261719 48.28125 263.703125 L 125.980469 277.980469 C 127.570312 273.375 131.898438 270.054688 137.042969 270.054688 C 138.953125 270.054688 140.71875 270.550781 142.308594 271.34375 L 187.75 207.25 C 187.257812 206.71875 186.851562 206.121094 186.515625 205.464844 L 120.304688 243.277344 C 120.359375 243.703125 120.429688 244.125 120.429688 244.546875 C 120.429688 251.027344 115.160156 256.289062 108.675781 256.289062 C 103.867188 256.289062 99.714844 253.375 97.910156 249.207031 Z M 193.847656 193.355469 C 196.058594 193.355469 198.054688 194.238281 199.539062 195.652344 L 226.902344 176.90625 C 226.105469 175.632812 225.628906 174.152344 225.628906 172.542969 C 225.628906 171.785156 225.769531 171.078125 225.945312 170.375 L 172.851562 142.90625 L 153.460938 163.949219 C 157.191406 167.953125 159.523438 173.285156 159.523438 179.199219 C 159.523438 180.824219 159.332031 182.414062 159.011719 183.929688 L 187.203125 196.726562 C 188.707031 194.699219 191.109375 193.355469 193.847656 193.355469 Z M 199.523438 207.671875 L 215.253906 233.710938 C 216.648438 233.128906 218.167969 232.808594 219.761719 232.808594 C 220.167969 232.808594 220.539062 232.878906 220.925781 232.933594 L 234.199219 180.804688 C 234.113281 180.804688 234.042969 180.824219 233.953125 180.824219 C 232.257812 180.824219 230.683594 180.3125 229.355469 179.429688 L 201.519531 198.476562 C 201.925781 199.445312 202.136719 200.503906 202.136719 201.617188 C 202.136719 204.035156 201.132812 206.171875 199.523438 207.671875 Z M 236.199219 164.601562 C 238.320312 165.199219 240.066406 166.59375 241.128906 168.464844 L 281.25 142.183594 C 280.5625 140.683594 280.152344 139.039062 280.152344 137.292969 C 280.152344 134.574219 281.125 132.085938 282.679688 130.109375 L 246.535156 91.996094 C 245.53125 92.597656 244.398438 92.984375 243.179688 93.125 Z M 190.683594 123.558594 L 175.289062 140.257812 L 227.554688 167.300781 C 228.828125 165.765625 230.628906 164.6875 232.714844 164.390625 L 239.714844 92.808594 C 238.441406 92.402344 237.277344 91.730469 236.355469 90.796875 L 207.972656 109.046875 C 208.644531 110.515625 209.03125 112.136719 209.03125 113.851562 C 209.03125 120.328125 203.765625 125.589844 197.277344 125.589844 C 194.839844 125.570312 192.578125 124.828125 190.683594 123.558594 Z M 132.394531 102.375 C 134.867188 104.953125 136.460938 108.34375 136.867188 112.101562 L 185.71875 112.101562 C 186.214844 108.835938 188.015625 105.996094 190.632812 104.195312 L 171.101562 64.300781 C 170.464844 64.457031 169.792969 64.566406 169.105469 64.566406 C 167.691406 64.566406 166.382812 64.175781 165.214844 63.558594 Z M 123.042969 97.523438 C 125.5 97.910156 127.78125 98.773438 129.742188 100.117188 L 162.53125 61.335938 C 161.453125 59.941406 160.761719 58.191406 160.761719 56.285156 C 160.761719 55.03125 161.0625 53.851562 161.558594 52.789062 L 137.34375 34.449219 C 134.496094 37.46875 130.554688 39.390625 126.121094 39.621094 Z M 33.945312 128.484375 C 34.617188 129.542969 35.132812 130.671875 35.554688 131.875 L 104.027344 115.878906 C 103.9375 115.210938 103.816406 114.539062 103.816406 113.832031 C 103.816406 104.972656 110.796875 97.785156 119.5625 97.328125 L 122.671875 39.410156 C 120.074219 39.003906 117.6875 38.015625 115.65625 36.550781 Z M 26.472656 122.058594 C 28.46875 122.921875 30.269531 124.160156 31.773438 125.695312 L 113.058594 34.238281 C 112.015625 33.109375 111.148438 31.820312 110.460938 30.441406 C 71.082031 49.066406 41.28125 82.464844 26.472656 122.058594 Z M 35.289062 252.105469 L 20.636719 153.816406 C 20.390625 153.832031 20.179688 153.886719 19.929688 153.886719 C 19.332031 153.886719 18.765625 153.78125 18.199219 153.710938 C 16.875 162.058594 16.132812 170.566406 16.132812 179.164062 C 16.132812 205.484375 22.386719 230.355469 33.433594 252.4375 C 34.019531 252.28125 34.652344 252.175781 35.289062 252.105469 Z M 61.609375 187.832031 C 55.652344 185.308594 51.480469 179.410156 51.480469 172.542969 C 51.480469 163.382812 58.921875 155.949219 68.09375 155.949219 C 71.699219 155.949219 75.023438 157.132812 77.761719 159.09375 L 108.179688 124.953125 C 106.695312 123.3125 105.546875 121.386719 104.804688 119.269531 L 36.332031 135.261719 C 36.421875 135.933594 36.546875 136.605469 36.546875 137.308594 C 36.546875 145.023438 31.242188 151.46875 24.085938 153.320312 L 38.84375 252.226562 C 39.851562 252.421875 40.789062 252.792969 41.671875 253.214844 Z M 44.675781 255.28125 C 45.789062 256.339844 46.691406 257.628906 47.308594 259.058594 L 97.0625 245.835938 C 97.011719 245.414062 96.9375 244.988281 96.9375 244.546875 C 96.9375 241.140625 98.40625 238.105469 100.738281 235.96875 L 74.476562 187.867188 C 72.511719 188.679688 70.355469 189.136719 68.09375 189.136719 C 67.015625 189.136719 65.972656 189.015625 64.949219 188.820312 Z M 164.316406 338.335938 L 45.082031 272.210938 C 71.683594 310.816406 114.3125 337.558594 163.324219 342.75 C 163.5 341.230469 163.835938 339.746094 164.316406 338.335938 Z M 170.625 328.734375 L 142.664062 292.015625 C 140.984375 292.933594 139.09375 293.5 137.042969 293.5 C 130.554688 293.5 125.289062 288.238281 125.289062 281.761719 C 125.289062 281.636719 125.324219 281.511719 125.324219 281.371094 L 47.714844 267.109375 C 47.484375 267.832031 47.203125 268.539062 46.851562 269.191406 L 165.675781 335.085938 C 166.949219 332.6875 168.609375 330.535156 170.625 328.734375 Z M 191.640625 209.613281 C 191.285156 209.507812 190.914062 209.421875 190.578125 209.277344 L 145.171875 273.339844 C 147.398438 275.476562 148.796875 278.457031 148.796875 281.777344 C 148.796875 284.953125 147.523438 287.832031 145.457031 289.949219 L 173.363281 326.597656 C 176.757812 324.40625 180.769531 323.121094 185.082031 323.03125 Z M 191.691406 323.929688 L 214.492188 254.964844 C 210.675781 253.023438 208.023438 249.101562 208.023438 244.53125 C 208.023438 240.894531 209.703125 237.699219 212.300781 235.546875 L 196.535156 209.4375 C 196.074219 209.597656 195.617188 209.71875 195.121094 209.789062 L 188.566406 323.261719 C 189.625 323.417969 190.667969 323.648438 191.691406 323.929688 Z M 284.925781 237.839844 C 283 236.394531 281.550781 234.378906 280.789062 232.03125 L 230.664062 240.1875 C 231.214844 241.546875 231.53125 243.011719 231.53125 244.546875 C 231.53125 251.027344 226.265625 256.289062 219.777344 256.289062 C 219.105469 256.289062 218.453125 256.199219 217.796875 256.09375 L 194.980469 325.113281 C 197.136719 326.101562 199.082031 327.425781 200.796875 329.015625 Z M 295.546875 297.066406 C 295.441406 296.941406 295.335938 296.800781 295.230469 296.675781 L 206.574219 337.71875 C 207.015625 338.9375 207.386719 340.1875 207.636719 341.496094 C 241.515625 335.933594 271.933594 319.996094 295.546875 297.066406 Z M 301.859375 270.726562 L 293.320312 240.046875 C 292.84375 240.101562 292.386719 240.1875 291.90625 240.1875 C 290.566406 240.1875 289.292969 239.921875 288.089844 239.5 L 203.109375 331.59375 C 203.851562 332.527344 204.488281 333.5 205.074219 334.558594 L 293.25 293.746094 C 292.050781 291.449219 291.308594 288.890625 291.308594 286.121094 C 291.34375 279.113281 295.707031 273.164062 301.859375 270.726562 Z M 345.054688 190.832031 C 343.164062 190.300781 341.519531 189.15625 340.441406 187.566406 L 301.734375 222.042969 C 302.9375 223.878906 303.660156 226.085938 303.660156 228.449219 C 303.660156 233.214844 300.796875 237.3125 296.699219 239.148438 L 305.214844 269.808594 C 306.101562 269.667969 307 269.527344 307.9375 269.527344 C 311.15625 269.527344 314.125 270.480469 316.667969 272.050781 C 332.789062 248.625 342.953125 220.824219 345.054688 190.832031 Z M 363.261719 113.832031 C 358.664062 113.832031 354.953125 117.539062 354.953125 122.128906 C 354.953125 126.71875 358.664062 130.425781 363.261719 130.425781 C 367.855469 130.425781 371.566406 126.71875 371.566406 122.128906 C 371.566406 117.558594 367.835938 113.832031 363.261719 113.832031 Z M 214.722656 23.011719 C 221.4375 23.011719 221.457031 12.578125 214.722656 12.578125 C 208.007812 12.578125 208.007812 23.011719 214.722656 23.011719 Z M 301.859375 83.277344 C 308.574219 83.277344 308.59375 72.84375 301.859375 72.84375 C 295.140625 72.84375 295.125 83.277344 301.859375 83.277344 Z M 275.117188 47.988281 C 281.832031 47.988281 281.851562 37.554688 275.117188 37.554688 C 268.402344 37.554688 268.382812 47.988281 275.117188 47.988281 Z M 275.117188 47.988281 " clip-rule="nonzero"/></clipPath><linearGradient x1="1820.417433" gradientTransform="matrix(0.176746, 0, 0, 0.176524, 3.317121, 6.50589)" y1="2211.287468" x2="319.071435" gradientUnits="userSpaceOnUse" y2="-198.765961" id="59baad37ae"><stop stop-opacity="1" stop-color="rgb(7.516479%, 41.668701%, 71.578979%)" offset="0"/><stop stop-opacity="1" stop-color="rgb(7.397461%, 41.7099%, 71.612549%)" offset="0.03125"/><stop stop-opacity="1" stop-color="rgb(7.16095%, 41.793823%, 71.679688%)" offset="0.0625"/><stop stop-opacity="1" stop-color="rgb(6.924438%, 41.876221%, 71.7453%)" offset="0.09375"/><stop stop-opacity="1" stop-color="rgb(6.687927%, 41.958618%, 71.812439%)" offset="0.125"/><stop stop-opacity="1" stop-color="rgb(6.44989%, 42.042542%, 71.879578%)" offset="0.15625"/><stop stop-opacity="1" stop-color="rgb(6.213379%, 42.124939%, 71.946716%)" offset="0.1875"/><stop stop-opacity="1" stop-color="rgb(5.976868%, 42.207336%, 72.012329%)" offset="0.21875"/><stop stop-opacity="1" stop-color="rgb(5.740356%, 42.289734%, 72.079468%)" offset="0.25"/><stop stop-opacity="1" stop-color="rgb(5.503845%, 42.373657%, 72.146606%)" offset="0.28125"/><stop stop-opacity="1" stop-color="rgb(5.267334%, 42.456055%, 72.213745%)" offset="0.3125"/><stop stop-opacity="1" stop-color="rgb(5.030823%, 42.538452%, 72.279358%)" offset="0.34375"/><stop stop-opacity="1" stop-color="rgb(4.794312%, 42.62085%, 72.346497%)" offset="0.375"/><stop stop-opacity="1" stop-color="rgb(4.556274%, 42.704773%, 72.413635%)" offset="0.387981"/><stop stop-opacity="1" stop-color="rgb(4.438782%, 42.745972%, 72.447205%)" offset="0.40625"/><stop stop-opacity="1" stop-color="rgb(4.319763%, 42.78717%, 72.480774%)" offset="0.4375"/><stop stop-opacity="1" stop-color="rgb(4.083252%, 42.869568%, 72.546387%)" offset="0.46875"/><stop stop-opacity="1" stop-color="rgb(3.846741%, 42.953491%, 72.613525%)" offset="0.5"/><stop stop-opacity="1" stop-color="rgb(3.610229%, 43.035889%, 72.680664%)" offset="0.53125"/><stop stop-opacity="1" stop-color="rgb(3.373718%, 43.118286%, 72.747803%)" offset="0.5625"/><stop stop-opacity="1" stop-color="rgb(3.137207%, 43.200684%, 72.813416%)" offset="0.59375"/><stop stop-opacity="1" stop-color="rgb(2.900696%, 43.284607%, 72.880554%)" offset="0.612019"/><stop stop-opacity="1" stop-color="rgb(2.783203%, 43.325806%, 72.914124%)" offset="0.625"/><stop stop-opacity="1" stop-color="rgb(2.664185%, 43.367004%, 72.947693%)" offset="0.65625"/><stop stop-opacity="1" stop-color="rgb(2.426147%, 43.449402%, 73.014832%)" offset="0.6875"/><stop stop-opacity="1" stop-color="rgb(2.189636%, 43.531799%, 73.080444%)" offset="0.71875"/><stop stop-opacity="1" stop-color="rgb(1.953125%, 43.615723%, 73.147583%)" offset="0.75"/><stop stop-opacity="1" stop-color="rgb(1.716614%, 43.69812%, 73.214722%)" offset="0.78125"/><stop stop-opacity="1" stop-color="rgb(1.480103%, 43.780518%, 73.28186%)" offset="0.8125"/><stop stop-opacity="1" stop-color="rgb(1.243591%, 43.862915%, 73.347473%)" offset="0.84375"/><stop stop-opacity="1" stop-color="rgb(1.00708%, 43.946838%, 73.414612%)" offset="0.875"/><stop stop-opacity="1" stop-color="rgb(0.770569%, 44.029236%, 73.48175%)" offset="0.90625"/><stop stop-opacity="1" stop-color="rgb(0.532532%, 44.111633%, 73.548889%)" offset="0.9375"/><stop stop-opacity="1" stop-color="rgb(0.296021%, 44.195557%, 73.614502%)" offset="0.96875"/><stop stop-opacity="1" stop-color="rgb(0.088501%, 44.267273%, 73.674011%)" offset="1"/></linearGradient></defs><g clip-path="url(#a470ce57f6)"><g clip-path="url(#8b53796b0a)"><path fill="url(#59baad37ae)" d="M 3.316406 6.507812 L 3.316406 367.921875 L 371.566406 367.921875 L 371.566406 6.507812 Z M 3.316406 6.507812 " fill-rule="nonzero"/></g></g><g fill="#4685ef" fill-opacity="1"><g transform="translate(163.750003, 171.518156)"><g><path d="M 3.5 0.109375 C 2.976562 0.109375 2.507812 -0.015625 2.09375 -0.265625 C 1.675781 -0.523438 1.34375 -0.925781 1.09375 -1.46875 C 0.851562 -2.019531 0.734375 -2.71875 0.734375 -3.5625 C 0.734375 -4.40625 0.851562 -5.097656 1.09375 -5.640625 C 1.34375 -6.191406 1.675781 -6.59375 2.09375 -6.84375 C 2.507812 -7.101562 2.976562 -7.234375 3.5 -7.234375 C 4.03125 -7.234375 4.5 -7.101562 4.90625 -6.84375 C 5.320312 -6.59375 5.65625 -6.191406 5.90625 -5.640625 C 6.15625 -5.097656 6.28125 -4.40625 6.28125 -3.5625 C 6.28125 -2.71875 6.15625 -2.019531 5.90625 -1.46875 C 5.65625 -0.925781 5.320312 -0.523438 4.90625 -0.265625 C 4.5 -0.015625 4.03125 0.109375 3.5 0.109375 Z M 3.5 -0.671875 C 4.125 -0.671875 4.59375 -0.894531 4.90625 -1.34375 C 5.226562 -1.789062 5.390625 -2.53125 5.390625 -3.5625 C 5.390625 -4.59375 5.226562 -5.332031 4.90625 -5.78125 C 4.59375 -6.226562 4.125 -6.453125 3.5 -6.453125 C 3.09375 -6.453125 2.75 -6.359375 2.46875 -6.171875 C 2.1875 -5.984375 1.972656 -5.675781 1.828125 -5.25 C 1.679688 -4.820312 1.609375 -4.257812 1.609375 -3.5625 C 1.609375 -2.863281 1.679688 -2.300781 1.828125 -1.875 C 1.972656 -1.445312 2.1875 -1.140625 2.46875 -0.953125 C 2.75 -0.765625 3.09375 -0.671875 3.5 -0.671875 Z M 3.5 -0.671875 "/></g></g></g><g fill="#4685ef" fill-opacity="1"><g transform="translate(170.757165, 171.518156)"><g><path d="M 0.5 0 L 0.5 -0.6875 L 2.453125 -0.6875 L 2.453125 -6.140625 L 2.34375 -6.171875 C 2.03125 -6.015625 1.753906 -5.894531 1.515625 -5.8125 C 1.273438 -5.726562 0.96875 -5.648438 0.59375 -5.578125 L 0.59375 -6.34375 C 0.96875 -6.414062 1.332031 -6.519531 1.6875 -6.65625 C 2.050781 -6.789062 2.378906 -6.945312 2.671875 -7.125 L 3.265625 -7.125 L 3.265625 -0.6875 L 5.015625 -0.6875 L 5.015625 0 Z M 0.5 0 "/></g></g></g><g fill="#4685ef" fill-opacity="1"><g transform="translate(176.068573, 171.518156)"><g><path d="M 5.625 -4.234375 L 5.625 -7.125 L 6.453125 -7.125 L 6.453125 0 L 5.625 0 L 5.625 -3.53125 L 1.921875 -3.53125 L 1.921875 0 L 1.078125 0 L 1.078125 -7.125 L 1.921875 -7.125 L 1.921875 -4.234375 Z M 5.625 -4.234375 "/></g></g></g><g fill="#4685ef" fill-opacity="1"><g transform="translate(183.602002, 171.518156)"><g><path d="M 1.921875 -3.359375 L 1.921875 -0.6875 L 5.546875 -0.6875 L 5.546875 0 L 1.078125 0 L 1.078125 -7.125 L 5.46875 -7.125 L 5.46875 -6.4375 L 1.921875 -6.4375 L 1.921875 -4.046875 L 5.046875 -4.046875 L 5.046875 -3.359375 Z M 1.921875 -3.359375 "/></g></g></g><g fill="#4685ef" fill-opacity="1"><g transform="translate(189.619978, 171.518156)"><g><path d="M 3.109375 0.109375 C 2.660156 0.109375 2.257812 0.046875 1.90625 -0.078125 C 1.550781 -0.203125 1.253906 -0.363281 1.015625 -0.5625 C 0.773438 -0.757812 0.597656 -0.976562 0.484375 -1.21875 L 0.953125 -1.765625 L 1.0625 -1.765625 C 1.507812 -1.023438 2.191406 -0.65625 3.109375 -0.65625 C 3.648438 -0.65625 4.050781 -0.765625 4.3125 -0.984375 C 4.570312 -1.210938 4.703125 -1.523438 4.703125 -1.921875 C 4.703125 -2.160156 4.660156 -2.359375 4.578125 -2.515625 C 4.492188 -2.679688 4.347656 -2.820312 4.140625 -2.9375 C 3.941406 -3.050781 3.675781 -3.148438 3.34375 -3.234375 L 2.5 -3.4375 C 1.882812 -3.59375 1.425781 -3.832031 1.125 -4.15625 C 0.832031 -4.476562 0.6875 -4.890625 0.6875 -5.390625 C 0.6875 -5.742188 0.773438 -6.0625 0.953125 -6.34375 C 1.140625 -6.625 1.410156 -6.84375 1.765625 -7 C 2.117188 -7.15625 2.535156 -7.234375 3.015625 -7.234375 C 3.554688 -7.234375 4.007812 -7.15625 4.375 -7 C 4.75 -6.851562 5.046875 -6.628906 5.265625 -6.328125 L 4.859375 -5.765625 L 4.734375 -5.765625 C 4.523438 -6.015625 4.28125 -6.195312 4 -6.3125 C 3.726562 -6.4375 3.398438 -6.5 3.015625 -6.5 C 2.523438 -6.5 2.15625 -6.398438 1.90625 -6.203125 C 1.65625 -6.015625 1.53125 -5.753906 1.53125 -5.421875 C 1.53125 -5.097656 1.617188 -4.835938 1.796875 -4.640625 C 1.984375 -4.453125 2.296875 -4.304688 2.734375 -4.203125 L 3.59375 -4 C 4.28125 -3.84375 4.78125 -3.59375 5.09375 -3.25 C 5.40625 -2.914062 5.5625 -2.488281 5.5625 -1.96875 C 5.5625 -1.5625 5.46875 -1.203125 5.28125 -0.890625 C 5.101562 -0.578125 4.832031 -0.332031 4.46875 -0.15625 C 4.101562 0.0195312 3.648438 0.109375 3.109375 0.109375 Z M 3.109375 0.109375 "/></g></g></g><g fill="#4685ef" fill-opacity="1"><g transform="translate(195.725665, 171.518156)"><g><path d="M 5.5625 -7.125 L 5.5625 -6.421875 L 3.328125 -6.421875 L 3.328125 0 L 2.5 0 L 2.5 -6.421875 L 0.265625 -6.421875 L 0.265625 -7.125 Z M 5.5625 -7.125 "/></g></g></g><g fill="#4685ef" fill-opacity="1"><g transform="translate(201.54385, 171.518156)"><g><path d="M 1.921875 0 L 1.078125 0 L 1.078125 -7.125 L 1.921875 -7.125 Z M 1.921875 0 "/></g></g></g><g fill="#4685ef" fill-opacity="1"><g transform="translate(204.540658, 171.518156)"><g><path d="M 6.421875 0 L 5.515625 0 L 4.859375 -1.953125 L 1.828125 -1.953125 L 1.15625 0 L 0.28125 0 L 2.765625 -7.125 L 3.921875 -7.125 Z M 3.28125 -6.265625 L 2.0625 -2.65625 L 4.625 -2.65625 L 3.40625 -6.265625 Z M 3.28125 -6.265625 "/></g></g></g><g fill="#4685ef" fill-opacity="1"><g transform="translate(162.938475, 185.087489)"><g><path d="M 6.421875 0 L 5.515625 0 L 4.859375 -1.953125 L 1.828125 -1.953125 L 1.15625 0 L 0.28125 0 L 2.765625 -7.125 L 3.921875 -7.125 Z M 3.28125 -6.265625 L 2.0625 -2.65625 L 4.625 -2.65625 L 3.40625 -6.265625 Z M 3.28125 -6.265625 "/></g></g></g><g fill="#4685ef" fill-opacity="1"><g transform="translate(169.633774, 185.087489)"><g><path d="M 3.9375 0.109375 C 3.3125 0.109375 2.753906 -0.03125 2.265625 -0.3125 C 1.785156 -0.601562 1.40625 -1.023438 1.125 -1.578125 C 0.851562 -2.128906 0.71875 -2.789062 0.71875 -3.5625 C 0.71875 -4.332031 0.851562 -4.992188 1.125 -5.546875 C 1.40625 -6.097656 1.785156 -6.515625 2.265625 -6.796875 C 2.753906 -7.085938 3.3125 -7.234375 3.9375 -7.234375 C 4.601562 -7.234375 5.15625 -7.101562 5.59375 -6.84375 C 6.039062 -6.59375 6.363281 -6.21875 6.5625 -5.71875 L 6.015625 -5.359375 L 5.90625 -5.359375 C 5.707031 -5.765625 5.453125 -6.050781 5.140625 -6.21875 C 4.828125 -6.394531 4.425781 -6.484375 3.9375 -6.484375 C 3.488281 -6.484375 3.085938 -6.378906 2.734375 -6.171875 C 2.390625 -5.972656 2.113281 -5.65625 1.90625 -5.21875 C 1.707031 -4.789062 1.609375 -4.238281 1.609375 -3.5625 C 1.609375 -2.882812 1.707031 -2.328125 1.90625 -1.890625 C 2.113281 -1.460938 2.390625 -1.148438 2.734375 -0.953125 C 3.085938 -0.753906 3.488281 -0.65625 3.9375 -0.65625 C 4.457031 -0.65625 4.878906 -0.769531 5.203125 -1 C 5.535156 -1.226562 5.78125 -1.601562 5.9375 -2.125 L 6.0625 -2.125 L 6.625 -1.859375 C 6.445312 -1.222656 6.128906 -0.734375 5.671875 -0.390625 C 5.222656 -0.0546875 4.644531 0.109375 3.9375 0.109375 Z M 3.9375 0.109375 "/></g></g></g><g fill="#4685ef" fill-opacity="1"><g transform="translate(176.621444, 185.087489)"><g><path d="M 6.421875 0 L 5.515625 0 L 4.859375 -1.953125 L 1.828125 -1.953125 L 1.15625 0 L 0.28125 0 L 2.765625 -7.125 L 3.921875 -7.125 Z M 3.28125 -6.265625 L 2.0625 -2.65625 L 4.625 -2.65625 L 3.40625 -6.265625 Z M 3.28125 -6.265625 "/></g></g></g><g fill="#4685ef" fill-opacity="1"><g transform="translate(183.316742, 185.087489)"><g><path d="M 3.390625 -7.125 C 4.109375 -7.125 4.722656 -6.992188 5.234375 -6.734375 C 5.753906 -6.484375 6.15625 -6.09375 6.4375 -5.5625 C 6.71875 -5.03125 6.859375 -4.363281 6.859375 -3.5625 C 6.859375 -2.757812 6.71875 -2.09375 6.4375 -1.5625 C 6.15625 -1.039062 5.753906 -0.648438 5.234375 -0.390625 C 4.722656 -0.128906 4.109375 0 3.390625 0 L 1.078125 0 L 1.078125 -7.125 Z M 3.296875 -0.71875 C 3.890625 -0.71875 4.378906 -0.804688 4.765625 -0.984375 C 5.160156 -1.171875 5.457031 -1.472656 5.65625 -1.890625 C 5.863281 -2.316406 5.96875 -2.875 5.96875 -3.5625 C 5.96875 -4.257812 5.863281 -4.816406 5.65625 -5.234375 C 5.457031 -5.648438 5.160156 -5.953125 4.765625 -6.140625 C 4.378906 -6.328125 3.890625 -6.421875 3.296875 -6.421875 L 1.921875 -6.421875 L 1.921875 -0.71875 Z M 3.296875 -0.71875 "/></g></g></g><g fill="#4685ef" fill-opacity="1"><g transform="translate(190.889154, 185.087489)"><g><path d="M 1.921875 -3.359375 L 1.921875 -0.6875 L 5.546875 -0.6875 L 5.546875 0 L 1.078125 0 L 1.078125 -7.125 L 5.46875 -7.125 L 5.46875 -6.4375 L 1.921875 -6.4375 L 1.921875 -4.046875 L 5.046875 -4.046875 L 5.046875 -3.359375 Z M 1.921875 -3.359375 "/></g></g></g><g fill="#4685ef" fill-opacity="1"><g transform="translate(196.90713, 185.087489)"><g><path d="M 1.859375 0 L 1.078125 0 L 1.078125 -7.125 L 2.328125 -7.125 L 4.484375 -1.09375 L 4.578125 -1.09375 L 6.75 -7.125 L 7.9375 -7.125 L 7.9375 0 L 7.140625 0 L 7.140625 -5.8125 L 7.03125 -5.828125 L 4.921875 0 L 4.078125 0 L 1.96875 -5.828125 L 1.859375 -5.8125 Z M 1.859375 0 "/></g></g></g><g fill="#4685ef" fill-opacity="1"><g transform="translate(205.926783, 185.087489)"><g><path d="M 3.484375 0 L 2.640625 0 L 2.640625 -2.796875 L 0.1875 -7.125 L 1.109375 -7.125 L 3.015625 -3.78125 L 3.140625 -3.78125 L 5.046875 -7.125 L 5.953125 -7.125 L 3.484375 -2.796875 Z M 3.484375 0 "/></g></g></g></svg>