<svg xmlns="http://www.w3.org/2000/svg" xmlns:xlink="http://www.w3.org/1999/xlink" width="500" zoomAndPan="magnify" viewBox="0 0 375 374.999991" height="500" preserveAspectRatio="xMidYMid meet" version="1.0"><defs><g/><clipPath id="0840b7ed8a"><path d="M 67.148438 1.582031 L 307.898438 1.582031 L 307.898438 237.832031 L 67.148438 237.832031 Z M 67.148438 1.582031 " clip-rule="nonzero"/></clipPath><clipPath id="416cefa89f"><path d="M 208.664062 28.722656 C 211.667969 28.722656 214.097656 31.144531 214.097656 34.144531 C 214.097656 37.144531 211.667969 39.566406 208.664062 39.566406 C 205.660156 39.566406 203.234375 37.144531 203.234375 34.144531 C 203.234375 31.144531 205.660156 28.722656 208.664062 28.722656 Z M 297.453125 116.882812 C 297.453125 119.59375 295.453125 121.820312 292.84375 122.222656 C 291.433594 142.285156 284.617188 160.882812 273.8125 176.558594 C 275.871094 178.53125 277.164062 181.289062 277.164062 184.367188 C 277.164062 190.355469 272.296875 195.210938 266.300781 195.210938 C 263.886719 195.210938 261.667969 194.394531 259.867188 193.066406 C 244.058594 208.445312 223.664062 219.128906 200.933594 222.820312 C 200.933594 222.921875 200.96875 223.027344 200.96875 223.128906 C 200.96875 231.242188 194.382812 237.804688 186.269531 237.804688 C 178.332031 237.804688 171.910156 231.503906 171.621094 223.660156 C 138.804688 220.210938 110.25 202.308594 92.480469 176.441406 C 91.390625 177.03125 90.179688 177.390625 88.863281 177.390625 C 84.621094 177.390625 81.179688 173.953125 81.179688 169.71875 C 81.179688 167.007812 82.597656 164.628906 84.726562 163.269531 C 77.375 148.558594 73.226562 131.996094 73.226562 114.46875 C 73.226562 108.691406 73.734375 102.980469 74.636719 97.363281 C 70.304688 95.933594 67.148438 91.894531 67.148438 87.09375 C 67.148438 81.109375 72.015625 76.25 78.011719 76.25 C 78.726562 76.25 79.433594 76.332031 80.113281 76.457031 C 89.984375 49.984375 109.890625 27.648438 136.226562 15.203125 C 136.285156 15.179688 136.339844 15.15625 136.410156 15.121094 C 136.191406 14.265625 136.042969 13.378906 136.042969 12.457031 C 136.042969 6.46875 140.90625 1.613281 146.902344 1.613281 C 151.269531 1.613281 155.027344 4.207031 156.738281 7.921875 C 156.792969 7.910156 156.851562 7.886719 156.898438 7.875 L 157.292969 9.480469 C 157.566406 10.425781 157.753906 11.40625 157.753906 12.445312 C 157.753906 14.496094 157.152344 16.402344 156.160156 18.027344 L 172 30.023438 C 172.949219 29.207031 174.171875 28.699219 175.523438 28.699219 C 178.527344 28.699219 180.957031 31.121094 180.957031 34.121094 C 180.957031 35.851562 180.136719 37.375 178.863281 38.367188 L 191.65625 64.484375 C 192.382812 64.253906 193.144531 64.09375 193.957031 64.09375 C 196.253906 64.09375 198.289062 65.117188 199.699219 66.710938 L 218.289062 54.769531 C 218.070312 54.171875 217.933594 53.535156 217.933594 52.867188 C 217.933594 49.867188 220.359375 47.445312 223.363281 47.445312 C 226.367188 47.445312 228.792969 49.867188 228.792969 52.867188 C 228.792969 54.007812 228.4375 55.058594 227.835938 55.9375 L 251.441406 80.820312 C 252.691406 79.953125 254.191406 79.433594 255.832031 79.433594 C 260.074219 79.433594 263.515625 82.871094 263.515625 87.105469 C 263.515625 90.949219 260.675781 94.109375 256.976562 94.664062 L 256.976562 139.136719 C 258.398438 139.34375 259.667969 139.941406 260.71875 140.820312 L 286.683594 117.699219 C 286.648438 117.433594 286.605469 117.171875 286.605469 116.894531 C 286.605469 113.894531 289.03125 111.472656 292.035156 111.472656 C 295.027344 111.460938 297.453125 113.882812 297.453125 116.882812 Z M 250.125 92.183594 L 223.316406 109.730469 C 223.328125 109.855469 223.351562 109.984375 223.351562 110.121094 C 223.351562 110.492188 223.316406 110.847656 223.246094 111.195312 L 251.394531 140.425781 C 252.355469 139.746094 253.476562 139.296875 254.6875 139.125 L 254.6875 94.640625 C 252.875 94.375 251.292969 93.484375 250.125 92.183594 Z M 248.148438 146.667969 C 248.148438 144.902344 248.761719 143.3125 249.765625 142.007812 L 222.230469 113.398438 C 221.792969 113.964844 221.261719 114.4375 220.636719 114.792969 L 211.644531 150.105469 C 212.765625 150.578125 213.726562 151.316406 214.5 152.230469 L 248.171875 146.761719 C 248.160156 146.726562 248.148438 146.703125 248.148438 146.667969 Z M 152.773438 77.714844 C 150.832031 80.65625 147.503906 82.597656 143.714844 82.597656 C 141.34375 82.597656 139.183594 81.824219 137.394531 80.542969 L 117.496094 102.855469 C 119.230469 104.757812 120.316406 107.261719 120.339844 110.027344 L 140.132812 111.933594 C 141.332031 105.046875 147.332031 99.785156 154.574219 99.785156 C 158.007812 99.785156 161.117188 101.007812 163.625 102.96875 L 175.894531 89.65625 Z M 177.488281 87.9375 L 187.992188 76.539062 C 187.160156 75.5 186.59375 74.265625 186.386719 72.894531 L 154.460938 72.894531 C 154.355469 73.875 154.160156 74.820312 153.8125 75.699219 Z M 186.28125 129.144531 C 186.28125 128.753906 186.328125 128.359375 186.410156 127.992188 L 168.257812 119.753906 C 166.128906 125.246094 160.828125 129.144531 154.574219 129.144531 C 152.96875 129.144531 151.445312 128.820312 150 128.347656 L 140.511719 150.984375 C 141.609375 151.765625 142.488281 152.828125 143.042969 154.074219 L 186.304688 129.386719 C 186.292969 129.292969 186.28125 129.226562 186.28125 129.144531 Z M 115.65625 119.039062 L 132.738281 150.289062 C 133.742188 149.804688 134.851562 149.519531 136.042969 149.519531 C 136.894531 149.519531 137.707031 149.691406 138.480469 149.945312 L 147.898438 127.472656 C 143.160156 125.039062 139.878906 120.15625 139.878906 114.46875 C 139.878906 114.378906 139.902344 114.285156 139.902344 114.195312 L 120.128906 112.289062 C 119.5625 115.082031 117.921875 117.46875 115.65625 119.039062 Z M 128.992188 160.222656 L 96.464844 168.863281 C 96.5 169.140625 96.546875 169.40625 96.546875 169.695312 L 147.34375 179.027344 C 148.382812 176.015625 151.214844 173.847656 154.574219 173.847656 C 155.824219 173.847656 156.980469 174.171875 158.019531 174.691406 L 187.726562 132.800781 C 187.402344 132.457031 187.136719 132.0625 186.917969 131.636719 L 143.632812 156.347656 C 143.667969 156.625 143.714844 156.902344 143.714844 157.179688 C 143.714844 161.410156 140.269531 164.847656 136.03125 164.847656 C 132.886719 164.847656 130.171875 162.945312 128.992188 160.222656 Z M 191.714844 123.722656 C 193.15625 123.722656 194.464844 124.300781 195.433594 125.222656 L 213.320312 112.972656 C 212.800781 112.140625 212.488281 111.171875 212.488281 110.121094 C 212.488281 109.625 212.582031 109.164062 212.699219 108.703125 L 177.984375 90.753906 L 165.308594 104.503906 C 167.75 107.121094 169.273438 110.605469 169.273438 114.46875 C 169.273438 115.53125 169.148438 116.570312 168.9375 117.5625 L 187.367188 125.925781 C 188.351562 124.597656 189.921875 123.722656 191.714844 123.722656 Z M 195.421875 133.078125 L 205.707031 150.09375 C 206.621094 149.714844 207.613281 149.507812 208.652344 149.507812 C 208.917969 149.507812 209.160156 149.550781 209.414062 149.585938 L 218.09375 115.519531 C 218.035156 115.519531 217.988281 115.53125 217.933594 115.53125 C 216.824219 115.53125 215.792969 115.199219 214.925781 114.621094 L 196.726562 127.066406 C 196.996094 127.703125 197.132812 128.394531 197.132812 129.121094 C 197.132812 130.703125 196.472656 132.097656 195.421875 133.078125 Z M 219.398438 104.929688 C 220.785156 105.324219 221.929688 106.234375 222.625 107.457031 L 248.851562 90.277344 C 248.402344 89.296875 248.136719 88.226562 248.136719 87.082031 C 248.136719 85.308594 248.773438 83.679688 249.789062 82.386719 L 226.160156 57.480469 C 225.5 57.875 224.761719 58.128906 223.964844 58.21875 Z M 189.644531 78.109375 L 179.582031 89.023438 L 213.75 106.695312 C 214.582031 105.691406 215.757812 104.988281 217.125 104.792969 L 221.699219 58.011719 C 220.867188 57.746094 220.105469 57.308594 219.503906 56.695312 L 200.945312 68.625 C 201.386719 69.582031 201.640625 70.644531 201.640625 71.761719 C 201.640625 75.996094 198.195312 79.433594 193.957031 79.433594 C 192.359375 79.421875 190.882812 78.9375 189.644531 78.109375 Z M 151.535156 64.265625 C 153.15625 65.949219 154.195312 68.164062 154.460938 70.621094 L 186.398438 70.621094 C 186.722656 68.488281 187.902344 66.628906 189.609375 65.453125 L 176.84375 39.382812 C 176.425781 39.484375 175.988281 39.554688 175.535156 39.554688 C 174.613281 39.554688 173.757812 39.300781 172.996094 38.898438 Z M 145.425781 61.09375 C 147.03125 61.347656 148.519531 61.910156 149.804688 62.789062 L 171.238281 37.441406 C 170.53125 36.53125 170.082031 35.390625 170.082031 34.144531 C 170.082031 33.324219 170.277344 32.550781 170.601562 31.859375 L 154.773438 19.875 C 152.910156 21.847656 150.335938 23.105469 147.433594 23.253906 Z M 87.175781 81.328125 C 87.613281 82.019531 87.949219 82.757812 88.226562 83.542969 L 132.992188 73.089844 C 132.933594 72.652344 132.851562 72.214844 132.851562 71.75 C 132.851562 65.960938 137.417969 61.265625 143.148438 60.964844 L 145.179688 23.113281 C 143.484375 22.851562 141.921875 22.203125 140.59375 21.246094 Z M 82.285156 77.128906 C 83.59375 77.691406 84.769531 78.5 85.753906 79.503906 L 138.894531 19.734375 C 138.214844 18.996094 137.648438 18.15625 137.195312 17.253906 C 111.453125 29.425781 91.96875 51.253906 82.285156 77.128906 Z M 88.054688 162.117188 L 78.472656 97.882812 C 78.3125 97.894531 78.171875 97.925781 78.011719 97.925781 C 77.617188 97.925781 77.25 97.859375 76.878906 97.8125 C 76.011719 103.269531 75.527344 108.828125 75.527344 114.449219 C 75.527344 131.648438 79.617188 147.902344 86.839844 162.335938 C 87.222656 162.230469 87.636719 162.160156 88.054688 162.117188 Z M 105.257812 120.113281 C 101.363281 118.460938 98.636719 114.609375 98.636719 110.121094 C 98.636719 104.132812 103.503906 99.277344 109.5 99.277344 C 111.855469 99.277344 114.027344 100.050781 115.820312 101.332031 L 135.707031 79.019531 C 134.734375 77.945312 133.984375 76.6875 133.5 75.304688 L 88.734375 85.757812 C 88.792969 86.195312 88.875 86.632812 88.875 87.09375 C 88.875 92.136719 85.40625 96.347656 80.726562 97.558594 L 90.375 162.195312 C 91.035156 162.324219 91.648438 162.566406 92.222656 162.84375 Z M 94.1875 164.191406 C 94.917969 164.882812 95.507812 165.726562 95.910156 166.660156 L 128.4375 158.019531 C 128.402344 157.742188 128.355469 157.464844 128.355469 157.179688 C 128.355469 154.953125 129.316406 152.96875 130.839844 151.570312 L 113.671875 120.136719 C 112.386719 120.664062 110.976562 120.964844 109.5 120.964844 C 108.792969 120.964844 108.113281 120.886719 107.441406 120.757812 Z M 172.40625 218.46875 L 94.453125 175.253906 C 111.84375 200.484375 139.714844 217.960938 171.757812 221.355469 C 171.875 220.363281 172.09375 219.394531 172.40625 218.46875 Z M 176.53125 212.195312 L 158.25 188.199219 C 157.152344 188.796875 155.914062 189.167969 154.574219 189.167969 C 150.335938 189.167969 146.890625 185.730469 146.890625 181.496094 C 146.890625 181.414062 146.914062 181.335938 146.914062 181.242188 L 96.175781 171.921875 C 96.027344 172.394531 95.839844 172.855469 95.609375 173.28125 L 173.292969 216.347656 C 174.125 214.777344 175.214844 213.371094 176.53125 212.195312 Z M 190.269531 134.347656 C 190.039062 134.277344 189.796875 134.21875 189.574219 134.128906 L 159.890625 175.992188 C 161.347656 177.390625 162.257812 179.339844 162.257812 181.507812 C 162.257812 183.585938 161.429688 185.464844 160.074219 186.847656 L 178.320312 210.796875 C 180.539062 209.367188 183.164062 208.527344 185.980469 208.46875 Z M 190.304688 209.054688 L 205.210938 163.984375 C 202.714844 162.714844 200.980469 160.152344 200.980469 157.167969 C 200.980469 154.789062 202.078125 152.703125 203.777344 151.292969 L 193.46875 134.230469 C 193.167969 134.335938 192.867188 134.417969 192.546875 134.464844 L 188.257812 208.617188 C 188.953125 208.722656 189.632812 208.871094 190.304688 209.054688 Z M 251.257812 152.792969 C 249.996094 151.847656 249.050781 150.53125 248.554688 149 L 215.78125 154.328125 C 216.140625 155.214844 216.347656 156.175781 216.347656 157.179688 C 216.347656 161.410156 212.90625 164.847656 208.664062 164.847656 C 208.226562 164.847656 207.796875 164.792969 207.371094 164.722656 L 192.453125 209.828125 C 193.863281 210.476562 195.132812 211.339844 196.253906 212.378906 Z M 258.203125 191.5 C 258.132812 191.417969 258.0625 191.324219 257.992188 191.246094 L 200.035156 218.066406 C 200.320312 218.863281 200.566406 219.679688 200.726562 220.535156 C 222.878906 216.902344 242.765625 206.484375 258.203125 191.5 Z M 262.328125 174.285156 L 256.746094 154.234375 C 256.433594 154.269531 256.132812 154.328125 255.820312 154.328125 C 254.941406 154.328125 254.109375 154.15625 253.324219 153.878906 L 197.769531 214.0625 C 198.253906 214.675781 198.667969 215.308594 199.050781 216 L 256.699219 189.328125 C 255.914062 187.828125 255.429688 186.15625 255.429688 184.34375 C 255.453125 179.765625 258.304688 175.878906 262.328125 174.285156 Z M 290.566406 122.074219 C 289.332031 121.726562 288.257812 120.976562 287.550781 119.9375 L 262.246094 142.46875 C 263.03125 143.667969 263.503906 145.109375 263.503906 146.65625 C 263.503906 149.773438 261.632812 152.449219 258.953125 153.648438 L 264.523438 173.6875 C 265.101562 173.59375 265.6875 173.5 266.300781 173.5 C 268.40625 173.5 270.347656 174.125 272.011719 175.152344 C 282.546875 159.84375 289.191406 141.671875 290.566406 122.074219 Z M 302.46875 71.75 C 299.464844 71.75 297.039062 74.175781 297.039062 77.175781 C 297.039062 80.171875 299.464844 82.597656 302.46875 82.597656 C 305.472656 82.597656 307.898438 80.171875 307.898438 77.175781 C 307.898438 74.1875 305.460938 71.75 302.46875 71.75 Z M 205.359375 12.398438 C 209.75 12.398438 209.761719 5.578125 205.359375 5.578125 C 200.96875 5.578125 200.96875 12.398438 205.359375 12.398438 Z M 262.328125 51.78125 C 266.71875 51.78125 266.730469 44.964844 262.328125 44.964844 C 257.9375 44.964844 257.925781 51.78125 262.328125 51.78125 Z M 244.84375 28.722656 C 249.234375 28.722656 249.246094 21.902344 244.84375 21.902344 C 240.453125 21.902344 240.441406 28.722656 244.84375 28.722656 Z M 244.84375 28.722656 " clip-rule="nonzero"/></clipPath><linearGradient x1="1820.417485" gradientTransform="matrix(0.115551, 0, 0, 0.115362, 67.149898, 1.61157)" y1="2211.287551" x2="319.071454" gradientUnits="userSpaceOnUse" y2="-198.76593" id="784d0fb3dd"><stop stop-opacity="1" stop-color="rgb(7.516479%, 41.668701%, 71.578979%)" offset="0"/><stop stop-opacity="1" stop-color="rgb(7.397461%, 41.7099%, 71.612549%)" offset="0.03125"/><stop stop-opacity="1" stop-color="rgb(7.16095%, 41.793823%, 71.679688%)" offset="0.0625"/><stop stop-opacity="1" stop-color="rgb(6.924438%, 41.876221%, 71.7453%)" offset="0.09375"/><stop stop-opacity="1" stop-color="rgb(6.687927%, 41.958618%, 71.812439%)" offset="0.125"/><stop stop-opacity="1" stop-color="rgb(6.44989%, 42.042542%, 71.879578%)" offset="0.15625"/><stop stop-opacity="1" stop-color="rgb(6.213379%, 42.124939%, 71.946716%)" offset="0.1875"/><stop stop-opacity="1" stop-color="rgb(5.976868%, 42.207336%, 72.012329%)" offset="0.21875"/><stop stop-opacity="1" stop-color="rgb(5.740356%, 42.289734%, 72.079468%)" offset="0.25"/><stop stop-opacity="1" stop-color="rgb(5.503845%, 42.373657%, 72.146606%)" offset="0.28125"/><stop stop-opacity="1" stop-color="rgb(5.267334%, 42.456055%, 72.213745%)" offset="0.3125"/><stop stop-opacity="1" stop-color="rgb(5.030823%, 42.538452%, 72.279358%)" offset="0.34375"/><stop stop-opacity="1" stop-color="rgb(4.794312%, 42.62085%, 72.346497%)" offset="0.375"/><stop stop-opacity="1" stop-color="rgb(4.556274%, 42.704773%, 72.413635%)" offset="0.387981"/><stop stop-opacity="1" stop-color="rgb(4.438782%, 42.745972%, 72.447205%)" offset="0.40625"/><stop stop-opacity="1" stop-color="rgb(4.319763%, 42.78717%, 72.480774%)" offset="0.4375"/><stop stop-opacity="1" stop-color="rgb(4.083252%, 42.869568%, 72.546387%)" offset="0.46875"/><stop stop-opacity="1" stop-color="rgb(3.846741%, 42.953491%, 72.613525%)" offset="0.5"/><stop stop-opacity="1" stop-color="rgb(3.610229%, 43.035889%, 72.680664%)" offset="0.53125"/><stop stop-opacity="1" stop-color="rgb(3.373718%, 43.118286%, 72.747803%)" offset="0.5625"/><stop stop-opacity="1" stop-color="rgb(3.137207%, 43.200684%, 72.813416%)" offset="0.59375"/><stop stop-opacity="1" stop-color="rgb(2.900696%, 43.284607%, 72.880554%)" offset="0.612019"/><stop stop-opacity="1" stop-color="rgb(2.783203%, 43.325806%, 72.914124%)" offset="0.625"/><stop stop-opacity="1" stop-color="rgb(2.664185%, 43.367004%, 72.947693%)" offset="0.65625"/><stop stop-opacity="1" stop-color="rgb(2.426147%, 43.449402%, 73.014832%)" offset="0.6875"/><stop stop-opacity="1" stop-color="rgb(2.189636%, 43.531799%, 73.080444%)" offset="0.71875"/><stop stop-opacity="1" stop-color="rgb(1.953125%, 43.615723%, 73.147583%)" offset="0.75"/><stop stop-opacity="1" stop-color="rgb(1.716614%, 43.69812%, 73.214722%)" offset="0.78125"/><stop stop-opacity="1" stop-color="rgb(1.480103%, 43.780518%, 73.28186%)" offset="0.8125"/><stop stop-opacity="1" stop-color="rgb(1.243591%, 43.862915%, 73.347473%)" offset="0.84375"/><stop stop-opacity="1" stop-color="rgb(1.00708%, 43.946838%, 73.414612%)" offset="0.875"/><stop stop-opacity="1" stop-color="rgb(0.770569%, 44.029236%, 73.48175%)" offset="0.90625"/><stop stop-opacity="1" stop-color="rgb(0.532532%, 44.111633%, 73.548889%)" offset="0.9375"/><stop stop-opacity="1" stop-color="rgb(0.296021%, 44.195557%, 73.614502%)" offset="0.96875"/><stop stop-opacity="1" stop-color="rgb(0.088501%, 44.267273%, 73.674011%)" offset="1"/></linearGradient></defs><g clip-path="url(#0840b7ed8a)"><g clip-path="url(#416cefa89f)"><path fill="url(#784d0fb3dd)" d="M 67.148438 1.613281 L 67.148438 237.804688 L 307.898438 237.804688 L 307.898438 1.613281 Z M 67.148438 1.613281 " fill-rule="nonzero"/></g></g><g fill="#ffffff" fill-opacity="1"><g transform="translate(30.246868, 312.361006)"><g><path d="M 22.09375 0.84375 C 18.238281 0.84375 14.90625 -0.128906 12.09375 -2.078125 C 9.28125 -4.035156 7.109375 -6.8125 5.578125 -10.40625 C 4.046875 -14.007812 3.28125 -18.273438 3.28125 -23.203125 C 3.28125 -28.128906 4.046875 -32.390625 5.578125 -35.984375 C 7.109375 -39.585938 9.28125 -42.363281 12.09375 -44.3125 C 14.90625 -46.269531 18.238281 -47.25 22.09375 -47.25 C 25.945312 -47.25 29.28125 -46.269531 32.09375 -44.3125 C 34.90625 -42.363281 37.066406 -39.585938 38.578125 -35.984375 C 40.085938 -32.390625 40.84375 -28.128906 40.84375 -23.203125 C 40.84375 -18.273438 40.085938 -14.007812 38.578125 -10.40625 C 37.066406 -6.8125 34.90625 -4.035156 32.09375 -2.078125 C 29.28125 -0.128906 25.945312 0.84375 22.09375 0.84375 Z M 22.09375 -8.4375 C 24.925781 -8.4375 27.082031 -9.703125 28.5625 -12.234375 C 30.050781 -14.765625 30.796875 -18.398438 30.796875 -23.140625 C 30.796875 -27.921875 30.039062 -31.585938 28.53125 -34.140625 C 27.019531 -36.703125 24.875 -37.984375 22.09375 -37.984375 C 19.257812 -37.984375 17.085938 -36.71875 15.578125 -34.1875 C 14.066406 -31.65625 13.3125 -27.992188 13.3125 -23.203125 C 13.3125 -18.421875 14.066406 -14.765625 15.578125 -12.234375 C 17.085938 -9.703125 19.257812 -8.4375 22.09375 -8.4375 Z M 22.09375 -8.4375 "/></g></g></g><g fill="#ffffff" fill-opacity="1"><g transform="translate(74.428586, 312.361006)"><g><path d="M 2.375 -46.34375 L 19.375 -46.34375 L 19.375 0 L 9.609375 0 L 9.609375 -37.625 L 2.375 -37.625 Z M 2.375 -46.34375 "/></g></g></g><g fill="#ffffff" fill-opacity="1"><g transform="translate(99.515988, 312.361006)"><g><path d="M 34.5 -48.78125 L 45.015625 -48.78125 L 45.015625 0 L 34.5 0 L 34.5 -20.140625 L 16.171875 -20.140625 L 16.171875 0 L 5.578125 0 L 5.578125 -48.78125 L 16.171875 -48.78125 L 16.171875 -29.96875 L 34.5 -29.96875 Z M 34.5 -48.78125 "/></g></g></g><g fill="#ffffff" fill-opacity="1"><g transform="translate(150.178613, 312.361006)"><g><path d="M 16.171875 -9.828125 L 35.609375 -9.828125 L 35.609375 0 L 5.578125 0 L 5.578125 -48.78125 L 34.84375 -48.78125 L 34.84375 -39.03125 L 16.171875 -39.03125 L 16.171875 -29.40625 L 33.03125 -29.40625 L 33.03125 -19.859375 L 16.171875 -19.859375 Z M 16.171875 -9.828125 "/></g></g></g><g fill="#ffffff" fill-opacity="1"><g transform="translate(189.133788, 312.361006)"><g><path d="M 21.75 0.96875 C 18.03125 0.96875 14.753906 0.296875 11.921875 -1.046875 C 9.085938 -2.390625 6.867188 -4.316406 5.265625 -6.828125 C 3.660156 -9.335938 2.859375 -12.332031 2.859375 -15.8125 L 13.515625 -15.8125 C 13.515625 -13.445312 14.335938 -11.691406 15.984375 -10.546875 C 17.640625 -9.410156 19.535156 -8.84375 21.671875 -8.84375 C 23.015625 -8.84375 24.28125 -9.0625 25.46875 -9.5 C 26.65625 -9.945312 27.628906 -10.597656 28.390625 -11.453125 C 29.160156 -12.316406 29.546875 -13.351562 29.546875 -14.5625 C 29.546875 -15.820312 29.101562 -16.8125 28.21875 -17.53125 C 27.34375 -18.25 26.160156 -18.835938 24.671875 -19.296875 C 23.179688 -19.765625 21.554688 -20.207031 19.796875 -20.625 C 17.984375 -21.039062 16.125 -21.550781 14.21875 -22.15625 C 12.3125 -22.757812 10.546875 -23.5625 8.921875 -24.5625 C 7.296875 -25.5625 5.992188 -26.910156 5.015625 -28.609375 C 4.035156 -30.304688 3.546875 -32.453125 3.546875 -35.046875 C 3.546875 -39.742188 5.132812 -43.359375 8.3125 -45.890625 C 11.5 -48.421875 15.8125 -49.6875 21.25 -49.6875 C 26.832031 -49.6875 31.15625 -48.28125 34.21875 -45.46875 C 37.28125 -42.65625 38.8125 -38.832031 38.8125 -34 L 28.359375 -34 C 28.359375 -36.09375 27.613281 -37.640625 26.125 -38.640625 C 24.644531 -39.640625 22.925781 -40.140625 20.96875 -40.140625 C 19.25 -40.140625 17.671875 -39.765625 16.234375 -39.015625 C 14.796875 -38.273438 14.078125 -37.117188 14.078125 -35.546875 C 14.078125 -34.378906 14.503906 -33.457031 15.359375 -32.78125 C 16.222656 -32.113281 17.363281 -31.554688 18.78125 -31.109375 C 20.195312 -30.671875 21.765625 -30.242188 23.484375 -29.828125 C 25.335938 -29.359375 27.238281 -28.8125 29.1875 -28.1875 C 31.144531 -27.5625 32.957031 -26.710938 34.625 -25.640625 C 36.300781 -24.578125 37.660156 -23.160156 38.703125 -21.390625 C 39.753906 -19.628906 40.28125 -17.398438 40.28125 -14.703125 C 40.28125 -11.171875 39.429688 -8.242188 37.734375 -5.921875 C 36.035156 -3.597656 33.789062 -1.867188 31 -0.734375 C 28.21875 0.398438 25.132812 0.96875 21.75 0.96875 Z M 21.75 0.96875 "/></g></g></g><g fill="#ffffff" fill-opacity="1"><g transform="translate(232.27019, 312.361006)"><g><path d="M 39.234375 -48.78125 L 39.234375 -38.953125 L 25.640625 -38.953125 L 25.640625 0 L 15.046875 0 L 15.046875 -38.953125 L 1.53125 -38.953125 L 1.53125 -48.78125 Z M 39.234375 -48.78125 "/></g></g></g><g fill="#ffffff" fill-opacity="1"><g transform="translate(272.967533, 312.361006)"><g><path d="M 5.578125 0 L 5.578125 -48.78125 L 16.171875 -48.78125 L 16.171875 0 Z M 5.578125 0 "/></g></g></g><g fill="#ffffff" fill-opacity="1"><g transform="translate(294.709957, 312.361006)"><g><path d="M 37.984375 0 L 34.5625 -9.265625 L 15.125 -9.265625 L 11.78125 0 L 0.625 0 L 19.71875 -48.78125 L 29.6875 -48.78125 L 49.40625 0 Z M 24.8125 -35.890625 L 18.46875 -18.46875 L 31.21875 -18.46875 Z M 24.8125 -35.890625 "/></g></g></g><g fill="#ffffff" fill-opacity="1"><g transform="translate(74.491632, 363.606118)"><g><path d="M 15.984375 0 L 14.546875 -3.90625 L 6.359375 -3.90625 L 4.953125 0 L 0.265625 0 L 8.296875 -20.53125 L 12.5 -20.53125 L 20.796875 0 Z M 10.4375 -15.109375 L 7.765625 -7.765625 L 13.140625 -7.765625 Z M 10.4375 -15.109375 "/></g></g></g><g fill="#ffffff" fill-opacity="1"><g transform="translate(107.985966, 363.606118)"><g><path d="M 11.765625 0.4375 C 10.253906 0.4375 8.851562 0.171875 7.5625 -0.359375 C 6.269531 -0.898438 5.144531 -1.65625 4.1875 -2.625 C 3.226562 -3.59375 2.484375 -4.726562 1.953125 -6.03125 C 1.429688 -7.332031 1.171875 -8.734375 1.171875 -10.234375 C 1.171875 -11.753906 1.429688 -13.171875 1.953125 -14.484375 C 2.484375 -15.796875 3.226562 -16.9375 4.1875 -17.90625 C 5.144531 -18.875 6.269531 -19.625 7.5625 -20.15625 C 8.851562 -20.695312 10.253906 -20.96875 11.765625 -20.96875 C 13.421875 -20.96875 14.941406 -20.625 16.328125 -19.9375 C 17.722656 -19.257812 18.890625 -18.300781 19.828125 -17.0625 C 20.765625 -15.832031 21.390625 -14.40625 21.703125 -12.78125 L 17.25 -12.78125 C 16.832031 -14 16.132812 -14.960938 15.15625 -15.671875 C 14.1875 -16.390625 13.054688 -16.75 11.765625 -16.75 C 10.609375 -16.75 9.566406 -16.457031 8.640625 -15.875 C 7.722656 -15.300781 6.992188 -14.523438 6.453125 -13.546875 C 5.921875 -12.566406 5.65625 -11.460938 5.65625 -10.234375 C 5.65625 -9.003906 5.921875 -7.90625 6.453125 -6.9375 C 6.992188 -5.96875 7.722656 -5.195312 8.640625 -4.625 C 9.566406 -4.0625 10.609375 -3.78125 11.765625 -3.78125 C 13.109375 -3.78125 14.269531 -4.160156 15.25 -4.921875 C 16.226562 -5.691406 16.90625 -6.726562 17.28125 -8.03125 L 21.765625 -8.03125 C 21.453125 -6.332031 20.828125 -4.847656 19.890625 -3.578125 C 18.960938 -2.304688 17.800781 -1.316406 16.40625 -0.609375 C 15.007812 0.0859375 13.460938 0.4375 11.765625 0.4375 Z M 11.765625 0.4375 "/></g></g></g><g fill="#ffffff" fill-opacity="1"><g transform="translate(143.034411, 363.606118)"><g><path d="M 15.984375 0 L 14.546875 -3.90625 L 6.359375 -3.90625 L 4.953125 0 L 0.265625 0 L 8.296875 -20.53125 L 12.5 -20.53125 L 20.796875 0 Z M 10.4375 -15.109375 L 7.765625 -7.765625 L 13.140625 -7.765625 Z M 10.4375 -15.109375 "/></g></g></g><g fill="#ffffff" fill-opacity="1"><g transform="translate(176.528742, 363.606118)"><g><path d="M 10.125 -20.53125 C 11.625 -20.53125 13.007812 -20.273438 14.28125 -19.765625 C 15.550781 -19.253906 16.648438 -18.539062 17.578125 -17.625 C 18.503906 -16.707031 19.226562 -15.625 19.75 -14.375 C 20.269531 -13.132812 20.53125 -11.773438 20.53125 -10.296875 C 20.53125 -8.804688 20.269531 -7.4375 19.75 -6.1875 C 19.226562 -4.9375 18.503906 -3.847656 17.578125 -2.921875 C 16.648438 -1.992188 15.550781 -1.273438 14.28125 -0.765625 C 13.007812 -0.253906 11.625 0 10.125 0 L 2.34375 0 L 2.34375 -20.53125 Z M 10 -4.140625 C 11.175781 -4.140625 12.210938 -4.398438 13.109375 -4.921875 C 14.003906 -5.453125 14.707031 -6.179688 15.21875 -7.109375 C 15.726562 -8.035156 15.984375 -9.097656 15.984375 -10.296875 C 15.984375 -11.484375 15.726562 -12.535156 15.21875 -13.453125 C 14.707031 -14.378906 14.003906 -15.097656 13.109375 -15.609375 C 12.210938 -16.128906 11.175781 -16.390625 10 -16.390625 L 6.796875 -16.390625 L 6.796875 -4.140625 Z M 10 -4.140625 "/></g></g></g><g fill="#ffffff" fill-opacity="1"><g transform="translate(210.697499, 363.606118)"><g><path d="M 6.796875 -4.140625 L 14.984375 -4.140625 L 14.984375 0 L 2.34375 0 L 2.34375 -20.53125 L 14.65625 -20.53125 L 14.65625 -16.421875 L 6.796875 -16.421875 L 6.796875 -12.375 L 13.90625 -12.375 L 13.90625 -8.359375 L 6.796875 -8.359375 Z M 6.796875 -4.140625 "/></g></g></g><g fill="#ffffff" fill-opacity="1"><g transform="translate(239.529461, 363.606118)"><g><path d="M 27.515625 0 L 23 0 L 20.96875 -13.40625 L 14.84375 -0.03125 L 13.75 -0.03125 L 7.625 -13.40625 L 5.609375 0 L 1.0625 0 L 4.28125 -20.53125 L 8.734375 -20.53125 L 14.28125 -7.953125 L 19.859375 -20.53125 L 24.3125 -20.53125 Z M 27.515625 0 "/></g></g></g><g fill="#ffffff" fill-opacity="1"><g transform="translate(280.55981, 363.606118)"><g><path d="M 19.4375 -20.53125 L 12.234375 -8.296875 L 12.234375 0 L 7.65625 0 L 7.65625 -8.328125 L 0.5 -20.53125 L 5.21875 -20.53125 L 9.96875 -12.3125 L 14.71875 -20.53125 Z M 19.4375 -20.53125 "/></g></g></g></svg>